<?xml version="1.0" encoding="UTF-8"?>
<svg role="img" viewBox="0 0 276 326.9">
    <path fill="#7f1517" class="edges" d="m276,286.16v10.5h-1.5c-62.74.25-125.51.5-188.25.75-20.02,0-49.36-3.32-62.25,4.5-.84,2.73-1.91,4.6-.75,7.5,6.36,12.49,44.63,7.5,63,7.5h189v9.75H81.75c-32.93,0-65.73,3.17-81.75-13.5.25-4.5.5-9,.75-13.5,8.41-16.91,45.94-13.5,71.25-13.5h204Z"/>
    <path fill="#b5cde3" class="pages" d="m270,297.41v18.75H84.75c-20,0-54.96,5.16-62.25-8.25,1-2.5,2-5,3-7.5,19.71-6.9,54.61-3,79.5-3h165Z"/>
    <path fill="#d71920" class="cover" d="m42,1.16h167.25c16.14,0,56.26-3.76,66.75,2.25v284.25H42V1.16Z"/>
    <path fill="#a51e22" class="spine" d="m43.5,1.16v286.5c-14.84-.33-23.5,1.88-31.49,6.18-3.71,2-7.28,4.45-11.26,7.32V92.66c0-54.54-1.49-67.14.24-73.53.73-2.7,2.03-4.29,4.26-7.47,3.46-4.94,8.19-7.6,14.17-9.01,6.55-1.55,14.6-1.59,24.08-1.49Z"/>
</svg>