<svg id="Layer_1" data-name="Layer 1" xmlns="http://www.w3.org/2000/svg" viewBox="0 0 480 103.88"><defs><style>.cls-1{fill:#fff;}</style></defs><g id="Isolation_Mode" data-name="Isolation Mode"><path class="cls-1" d="M100.86,52.91c0-21.43-9.73-38.54-27.72-47.28-16.06-7.8-34.22-7.2-48.3-.06l2.52,4.67A64.87,64.87,0,0,1,48,7.71C73.14,9.06,85.07,30.2,84,53.26l-64-.12c0,8.26,1.17,18.36,7.44,26.08,7.67,9.44,15.85,14.15,31,14.15,14.7,0,27-6.12,35-17.06a36.3,36.3,0,0,0,6.2-12.85A50.58,50.58,0,0,0,100.86,52.91ZM77.07,75.25c-6.33,6.27-12.77,7-18.11,7-5.53,0-10.16-1.34-15.66-6.48A18.94,18.94,0,0,1,37.46,63H83.35S83.16,69.22,77.07,75.25Z" transform="translate(0 0)"/><path class="cls-1" d="M52.85,96c-25.13-1.35-37.06-22.49-36-45.55l64,.12c0-8.26-1.17-18.36-7.44-26.08C65.68,15,57.5,10.33,42.37,10.33c-14.7,0-27,6.12-35,17.06a36.3,36.3,0,0,0-6.2,12.85A50.5,50.5,0,0,0,0,50.78C0,72.21,9.73,89.32,27.73,98.06c16.06,7.8,34.22,7.2,48.3.06L73.5,93.45A64.63,64.63,0,0,1,52.85,96ZM23.79,28.45c6.33-6.27,12.77-7,18.11-7,5.53,0,10.16,1.34,15.66,6.48A18.94,18.94,0,0,1,63.4,40.7H17.51S17.71,34.47,23.79,28.45Z" transform="translate(0 0)"/><path class="cls-1" d="M181.36,49.17q0-12.95-6.66-20.25t-18.27-7.36Q145,21.56,138,29.14t-6.88,20.09q0,12.51,7.09,20.09c4.73,5,12.75,7.52,20.57,7.52A45.34,45.34,0,0,0,171.19,76c4.68-1.1,6.73-2.41,10.12-4.53L181.36,60c-3.88,2.12-5.57,3.79-10.54,5a37.84,37.84,0,0,1-11.57,1c-3.87,0-8.8-1.25-11.27-3.76A15.88,15.88,0,0,1,143.8,52h37.51Zm-36.76-7a14,14,0,0,1,1.72-4,12.3,12.3,0,0,1,2.71-3,12,12,0,0,1,3.52-1.93,12.65,12.65,0,0,1,4.14-.67q9.67,0,12.2,9.67ZM228.06,28.7q-7.16-7.14-16.23-7.14a22.86,22.86,0,0,0-17.83,8q-7,8-7,19.92,0,11.76,7,19.6a22.61,22.61,0,0,0,17.57,7.79q9.24,0,16.44-7.36v34.32h12.15V23h-12.1Zm-3.44,32.71A13.82,13.82,0,0,1,213.82,66a13,13,0,0,1-10.37-4.83q-4.08-4.72-4.08-12.3a17.24,17.24,0,0,1,4.14-11.71,13.36,13.36,0,0,1,10.43-4.73,13.7,13.7,0,0,1,10.75,4.67,17.9,17.9,0,0,1,4.14,12.14Q228.82,56.74,224.62,61.41ZM280.11,53q0,13-10.27,13T259.58,53V23H247.49V53.3q0,7.2,1.51,10.85a18.39,18.39,0,0,0,5.32,7.36q6.14,5.33,15.53,5.32t15.59-5.32a18.18,18.18,0,0,0,5.21-7.36A33.54,33.54,0,0,0,292.2,53.3V23H280.11Zm21.21,22.29h12.09V23H301.32ZM348.8,21.56q-8,0-14.3,6.28V23H322.36V75.32H334.5V50.08q0-9.76,2.47-13.7t8.54-4q5.53,0,7.63,3T355.3,46.1V75.32h12.15V43.26q0-11.05-4.41-16Q357.92,21.56,348.8,21.56Zm53.84,0a27.22,27.22,0,0,0-19.78,8,26,26,0,0,0-8.12,19.28,27.14,27.14,0,0,0,8,20,26.57,26.57,0,0,0,19.72,8.06,27.77,27.77,0,0,0,20-7.89,26.47,26.47,0,0,0,8.11-19.71,26.61,26.61,0,0,0-8.06-19.66,27.34,27.34,0,0,0-19.87-8ZM414,61.46Q409.73,66,402.64,66a14.77,14.77,0,0,1-11.34-4.62q-4.19-4.56-4.19-12.41a16.81,16.81,0,0,1,4.3-11.92,16.09,16.09,0,0,1,22.57,0q4.25,4.56,4.25,12.19T414,61.46Zm65.18-38.18H465.61L454.86,38.14l6.78,9.35ZM447.07,48.77l.12.16.16-.22-.12-.17ZM461.6,50l-6.78,9.29L466.3,75.06h13.55Z" transform="translate(0 0)"/><path class="cls-1" d="M300.22,7.31a6.81,6.81,0,0,1,2.1-5,7.12,7.12,0,0,1,10.08,0h0a6.74,6.74,0,0,1,2.1,5,6.91,6.91,0,0,1-2.1,5.07,6.74,6.74,0,0,1-5,2.1,6.91,6.91,0,0,1-5.07-2.1A7,7,0,0,1,300.22,7.31ZM442,23l18.54,25.76L441.3,75.32H427.75L447,48.77,428.44,23Z" transform="translate(0 0)"/><path class="cls-1" d="M166.54,103.87a5.4,5.4,0,0,1-2.4-.54,6,6,0,0,1-1.87-1.44,6.61,6.61,0,0,1-1.21-2,6.76,6.76,0,0,1-.43-2.36,6.47,6.47,0,0,1,1.7-4.41,6,6,0,0,1,1.88-1.41,5.26,5.26,0,0,1,2.34-.52,5.13,5.13,0,0,1,2.4.56,6,6,0,0,1,1.86,1.46,6.79,6.79,0,0,1,1.2,2,6.65,6.65,0,0,1-1.27,6.77,6.12,6.12,0,0,1-1.87,1.4A5.22,5.22,0,0,1,166.54,103.87Zm-4.66-6.38a5.92,5.92,0,0,0,.34,2,5.39,5.39,0,0,0,1,1.68,4.91,4.91,0,0,0,1.47,1.17,4.16,4.16,0,0,0,1.9.43,4.07,4.07,0,0,0,1.93-.46A4.65,4.65,0,0,0,170,101.1a5.43,5.43,0,0,0,.93-1.68,5.77,5.77,0,0,0,0-3.89,5.46,5.46,0,0,0-1-1.67,4.87,4.87,0,0,0-1.47-1.16,4.32,4.32,0,0,0-3.81,0,4.49,4.49,0,0,0-1.47,1.2,5.43,5.43,0,0,0-.93,1.68,5.67,5.67,0,0,0-.36,1.91Z" transform="translate(0 0)"/><path class="cls-1" d="M179,103.78V91.2h5.21a3.4,3.4,0,0,1,1.5.35,3.86,3.86,0,0,1,1.18.9,4.14,4.14,0,0,1,.78,1.27,4,4,0,0,1,.28,1.44,4.28,4.28,0,0,1-.27,1.5,4,4,0,0,1-.74,1.27,3.78,3.78,0,0,1-1.14.89,3.18,3.18,0,0,1-1.48.34h-4.08v4.64ZM180.28,98h4a2.17,2.17,0,0,0,1-.24,2.51,2.51,0,0,0,.77-.64,2.94,2.94,0,0,0,.5-.92,3.37,3.37,0,0,0,.18-1.09,3,3,0,0,0-.75-2,2.59,2.59,0,0,0-.82-.61,2.28,2.28,0,0,0-1-.22h-3.92Z" transform="translate(0 0)"/><path class="cls-1" d="M202.77,102.68v1.1h-8.45V91.2h8.29v1.1h-7.05v4.54h6.15v1h-6.15v4.8Z" transform="translate(0 0)"/><path class="cls-1" d="M210.6,93.5v10.28h-1.24V91.2h1l8.33,10.47V91.22h1.24v12.57h-1.08Z" transform="translate(0 0)"/><path class="cls-1" d="M247.49,103.78V91.2h1.24v11.48H256v1.1Z" transform="translate(0 0)"/><path class="cls-1" d="M262.07,103.78V91.2h1.24v12.58Z" transform="translate(0 0)"/><path class="cls-1" d="M280.18,100.54a2.93,2.93,0,0,1-.28,1.3,3.24,3.24,0,0,1-.76,1,3.55,3.55,0,0,1-1.12.67,4,4,0,0,1-1.36.24h-5.94V91.2h6.06a2.48,2.48,0,0,1,1.19.28,3.08,3.08,0,0,1,.9.74,3.35,3.35,0,0,1,.58,1,3.49,3.49,0,0,1,.2,1.16,3.27,3.27,0,0,1-.48,1.75,3,3,0,0,1-1.33,1.18,3.14,3.14,0,0,1,1.71,1.19A3.31,3.31,0,0,1,280.18,100.54ZM272,92.28v4.64h4.32a2,2,0,0,0,.86-.19,2.13,2.13,0,0,0,.68-.51,2.47,2.47,0,0,0,.6-1.62,2.74,2.74,0,0,0-.15-.9,2.18,2.18,0,0,0-.42-.74,2,2,0,0,0-.65-.5,1.75,1.75,0,0,0-.81-.19Zm7,8a2.74,2.74,0,0,0-.16-.89,2.33,2.33,0,0,0-1.14-1.29,2,2,0,0,0-.86-.2H272v4.77h4.7a2.14,2.14,0,0,0,.9-.19,2.5,2.5,0,0,0,.73-.52,2.06,2.06,0,0,0,.61-1.63Z" transform="translate(0 0)"/><path class="cls-1" d="M286.78,103.78V91.2h5.32a3.37,3.37,0,0,1,1.5.35,3.86,3.86,0,0,1,1.18.9,4.12,4.12,0,0,1,.77,1.27,4,4,0,0,1,.28,1.44,4.23,4.23,0,0,1-.2,1.32,4,4,0,0,1-.57,1.13,3.56,3.56,0,0,1-.88.85,3.21,3.21,0,0,1-1.15.47l3.08,4.86h-1.4l-3-4.64H288v4.64ZM288,98h4.11a2.17,2.17,0,0,0,1-.24,2.41,2.41,0,0,0,.77-.65,3.05,3.05,0,0,0,.5-.92,3.31,3.31,0,0,0,.18-1.08,3,3,0,0,0-.75-2,2.58,2.58,0,0,0-.81-.62,2.29,2.29,0,0,0-1-.23h-4Z" transform="translate(0 0)"/><path class="cls-1" d="M306.31,91.2h1l5.23,12.58h-1.31l-1.63-3.93H304l-1.61,3.93H301Zm3,7.67-2.54-6.22-2.57,6.22Z" transform="translate(0 0)"/><path class="cls-1" d="M318.64,103.78V91.2H324a3.37,3.37,0,0,1,1.5.35,3.86,3.86,0,0,1,1.18.9,4.12,4.12,0,0,1,.77,1.27,4,4,0,0,1,.28,1.44,4.23,4.23,0,0,1-.2,1.32,4,4,0,0,1-.57,1.13,3.56,3.56,0,0,1-.88.85,3.21,3.21,0,0,1-1.15.47l3.08,4.86h-1.4l-3-4.64h-3.72v4.64ZM319.89,98H324a2.17,2.17,0,0,0,1-.24,2.41,2.41,0,0,0,.77-.65,3.05,3.05,0,0,0,.5-.92,3.31,3.31,0,0,0,.18-1.08,3,3,0,0,0-.75-2,2.58,2.58,0,0,0-.81-.62,2.29,2.29,0,0,0-1-.23h-4Z" transform="translate(0 0)"/><path class="cls-1" d="M334.14,91.2l4.11,6.8,4.15-6.77h1.35l-4.87,7.9v4.68h-1.24V99.07l-4.86-7.87Z" transform="translate(0 0)"/><path class="cls-1" d="M357.61,103.78V91.2h1.24v12.58Z" transform="translate(0 0)"/><path class="cls-1" d="M367.5,93.5v10.28h-1.24V91.2h1l8.33,10.47V91.22h1.24v12.57H375.7Z" transform="translate(0 0)"/><path class="cls-1" d="M384.19,103.78V91.2h1.24v12.58Z" transform="translate(0 0)"/><path class="cls-1" d="M401.77,92.3h-4.48v11.48H396V92.3h-4.48V91.2h10.21Z" transform="translate(0 0)"/><path class="cls-1" d="M407.9,103.78V91.2h1.24v12.58Z" transform="translate(0 0)"/><path class="cls-1" d="M420.45,91.2h1l5.23,12.58h-1.31l-1.63-3.93h-5.65l-1.61,3.93h-1.33Zm3,7.67L421,92.65l-2.57,6.22Z" transform="translate(0 0)"/><path class="cls-1" d="M440.48,92.3H436v11.48h-1.24V92.3h-4.48V91.2h10.21Z" transform="translate(0 0)"/><path class="cls-1" d="M446.61,103.78V91.2h1.24v12.58Z" transform="translate(0 0)"/><path class="cls-1" d="M455.21,91.2l4.5,11,4.48-11h1.29l-5.25,12.58h-1.08L453.91,91.2Z" transform="translate(0 0)"/><path class="cls-1" d="M480,102.68v1.1h-8.45V91.2h8.29v1.1h-7v4.54h6.15v1h-6.15v4.8Z" transform="translate(0 0)"/></g></svg>