<?xml version="1.0" encoding="utf-8"?>
<!-- Generator: Adobe Illustrator 26.0.3, SVG Export Plug-In . SVG Version: 6.00 Build 0)  -->
<svg version="1.1" id="Layer_1" xmlns="http://www.w3.org/2000/svg" xmlns:xlink="http://www.w3.org/1999/xlink" x="0px" y="0px"
	 viewBox="0 0 173 69" style="enable-background:new 0 0 173 69;" xml:space="preserve">
<style type="text/css">
	.st0{fill:#266ABC;}
	.st1{fill:#36803F;}
	.st2{fill:#9CC83B;}
</style>
<g>
	<g>
		<path class="st0" d="M4.6,59.3l1.3-0.1c0.1,0.5,0.2,1,0.4,1.3c0.2,0.3,0.6,0.6,1.1,0.8c0.5,0.2,1,0.3,1.6,0.3c0.5,0,1-0.1,1.4-0.2
			s0.7-0.4,0.9-0.7c0.2-0.3,0.3-0.6,0.3-0.9c0-0.3-0.1-0.6-0.3-0.9c-0.2-0.3-0.5-0.5-1-0.6c-0.3-0.1-0.9-0.3-1.9-0.5
			c-1-0.2-1.7-0.5-2.1-0.7c-0.5-0.3-0.9-0.6-1.1-1C5.1,55.7,5,55.3,5,54.8c0-0.5,0.2-1,0.5-1.5c0.3-0.5,0.8-0.8,1.3-1.1
			s1.2-0.4,2-0.4c0.8,0,1.5,0.1,2.1,0.4c0.6,0.3,1.1,0.6,1.4,1.1s0.5,1.1,0.5,1.7l-1.4,0.1c-0.1-0.7-0.3-1.2-0.7-1.5s-1-0.5-1.9-0.5
			c-0.9,0-1.5,0.2-1.9,0.5c-0.4,0.3-0.6,0.7-0.6,1.1c0,0.4,0.1,0.7,0.4,1c0.3,0.2,1,0.5,2.1,0.8c1.2,0.3,1.9,0.5,2.4,0.7
			c0.6,0.3,1.1,0.7,1.4,1.1c0.3,0.4,0.4,1,0.4,1.5c0,0.6-0.2,1.1-0.5,1.6c-0.3,0.5-0.8,0.9-1.4,1.2c-0.6,0.3-1.3,0.4-2.1,0.4
			c-1,0-1.8-0.1-2.4-0.4s-1.2-0.7-1.5-1.3C4.8,60.6,4.6,60,4.6,59.3z"/>
		<path class="st0" d="M20.2,60.2l1.4,0.2c-0.2,0.8-0.6,1.4-1.2,1.9s-1.3,0.7-2.2,0.7c-1.1,0-2-0.3-2.7-1.1c-0.7-0.7-1-1.7-1-2.9
			c0-1.3,0.3-2.3,1-3c0.7-0.7,1.5-1.1,2.6-1.1c1,0,1.9,0.4,2.5,1.1s1,1.7,1,3c0,0.1,0,0.2,0,0.4h-5.8c0,0.9,0.3,1.5,0.7,2
			s1,0.7,1.6,0.7c0.5,0,0.9-0.1,1.2-0.4S20,60.8,20.2,60.2z M15.9,58.1h4.3c-0.1-0.7-0.2-1.1-0.5-1.5c-0.4-0.5-1-0.8-1.6-0.8
			c-0.6,0-1.1,0.2-1.5,0.6C16.1,56.9,15.9,57.4,15.9,58.1z"/>
		<path class="st0" d="M28.3,61.8c-0.5,0.4-1,0.7-1.4,0.9s-0.9,0.3-1.5,0.3c-0.9,0-1.5-0.2-2-0.6c-0.5-0.4-0.7-1-0.7-1.6
			c0-0.4,0.1-0.7,0.3-1c0.2-0.3,0.4-0.6,0.7-0.8c0.3-0.2,0.6-0.3,0.9-0.4c0.3-0.1,0.6-0.1,1.2-0.2c1.1-0.1,1.8-0.3,2.4-0.5
			c0-0.2,0-0.3,0-0.3c0-0.5-0.1-0.9-0.4-1.1c-0.3-0.3-0.8-0.4-1.5-0.4c-0.6,0-1.1,0.1-1.4,0.3c-0.3,0.2-0.5,0.6-0.7,1.2L23,57.2
			c0.1-0.6,0.3-1,0.6-1.3c0.3-0.3,0.7-0.6,1.2-0.8c0.5-0.2,1.1-0.3,1.8-0.3c0.7,0,1.2,0.1,1.6,0.2s0.7,0.4,0.9,0.6
			c0.2,0.2,0.3,0.5,0.4,0.9c0,0.2,0.1,0.6,0.1,1.2v1.8c0,1.2,0,2,0.1,2.3c0.1,0.3,0.2,0.6,0.3,0.9h-1.4
			C28.4,62.4,28.3,62.1,28.3,61.8z M28.2,58.8C27.7,59,27,59.2,26,59.3c-0.5,0.1-0.9,0.2-1.1,0.3s-0.4,0.2-0.5,0.4
			c-0.1,0.2-0.2,0.4-0.2,0.6c0,0.4,0.1,0.6,0.4,0.9c0.3,0.2,0.7,0.4,1.2,0.4c0.5,0,1-0.1,1.4-0.3c0.4-0.2,0.7-0.5,0.9-0.9
			c0.1-0.3,0.2-0.7,0.2-1.3V58.8z"/>
		<path class="st0" d="M31.5,62.7v-7.8h1.2v1.2c0.3-0.6,0.6-0.9,0.8-1.1c0.3-0.2,0.5-0.3,0.8-0.3c0.4,0,0.9,0.1,1.4,0.4l-0.5,1.2
			c-0.3-0.2-0.6-0.3-1-0.3c-0.3,0-0.5,0.1-0.8,0.3c-0.2,0.2-0.4,0.4-0.5,0.7c-0.1,0.5-0.2,1-0.2,1.5v4.1H31.5z"/>
		<path class="st0" d="M41.6,59.9l1.3,0.2c-0.1,0.9-0.5,1.6-1.1,2.1c-0.6,0.5-1.3,0.8-2.1,0.8c-1.1,0-1.9-0.3-2.6-1
			c-0.6-0.7-1-1.7-1-3c0-0.8,0.1-1.6,0.4-2.2s0.7-1.1,1.3-1.4c0.6-0.3,1.2-0.5,1.9-0.5c0.8,0,1.5,0.2,2.1,0.6c0.5,0.4,0.9,1,1,1.8
			l-1.3,0.2c-0.1-0.5-0.3-0.9-0.6-1.2c-0.3-0.3-0.7-0.4-1.1-0.4c-0.7,0-1.2,0.2-1.6,0.7c-0.4,0.5-0.6,1.2-0.6,2.3
			c0,1,0.2,1.8,0.6,2.3s0.9,0.7,1.6,0.7c0.5,0,0.9-0.2,1.3-0.5S41.5,60.5,41.6,59.9z"/>
		<path class="st0" d="M44.1,62.7V52h1.3v3.9c0.6-0.7,1.4-1.1,2.3-1.1c0.6,0,1.1,0.1,1.5,0.3c0.4,0.2,0.7,0.5,0.9,0.9
			c0.2,0.4,0.3,1,0.3,1.7v4.9h-1.3v-4.9c0-0.7-0.1-1.1-0.4-1.4c-0.3-0.3-0.7-0.5-1.2-0.5c-0.4,0-0.8,0.1-1.1,0.3
			c-0.3,0.2-0.6,0.5-0.7,0.8s-0.2,0.8-0.2,1.4v4.3H44.1z"/>
		<path class="st0" d="M52.8,62.7v-1.5h1.5v1.5H52.8z"/>
		<path class="st0" d="M60.9,62.7V52h3.7c0.8,0,1.5,0.1,1.9,0.2c0.6,0.1,1.1,0.4,1.6,0.8c0.6,0.5,1,1.1,1.3,1.8
			c0.3,0.7,0.4,1.6,0.4,2.6c0,0.8-0.1,1.5-0.3,2.2s-0.4,1.2-0.7,1.6c-0.3,0.4-0.6,0.7-1,1c-0.4,0.2-0.8,0.4-1.3,0.5
			c-0.5,0.1-1.1,0.2-1.7,0.2H60.9z M62.3,61.5h2.3c0.7,0,1.3-0.1,1.7-0.2c0.4-0.1,0.7-0.3,1-0.6c0.3-0.3,0.6-0.8,0.8-1.4
			c0.2-0.6,0.3-1.3,0.3-2.1c0-1.1-0.2-2-0.6-2.6c-0.4-0.6-0.8-1-1.3-1.2c-0.4-0.1-1-0.2-1.8-0.2h-2.3V61.5z"/>
		<path class="st0" d="M71.6,53.5V52h1.3v1.5H71.6z M71.6,62.7v-7.8h1.3v7.8H71.6z"/>
		<path class="st0" d="M74.4,60.4l1.3-0.2c0.1,0.5,0.3,0.9,0.6,1.2c0.3,0.3,0.8,0.4,1.4,0.4c0.6,0,1.1-0.1,1.3-0.4
			c0.3-0.2,0.4-0.5,0.4-0.9c0-0.3-0.1-0.5-0.4-0.7c-0.2-0.1-0.6-0.3-1.3-0.4c-1-0.2-1.6-0.5-2-0.6c-0.4-0.2-0.7-0.4-0.8-0.7
			c-0.2-0.3-0.3-0.7-0.3-1c0-0.3,0.1-0.7,0.2-1c0.2-0.3,0.4-0.5,0.6-0.7c0.2-0.2,0.5-0.3,0.8-0.4c0.4-0.1,0.7-0.2,1.1-0.2
			c0.6,0,1.1,0.1,1.6,0.3c0.5,0.2,0.8,0.4,1,0.7c0.2,0.3,0.4,0.7,0.5,1.2l-1.3,0.2c-0.1-0.4-0.2-0.7-0.5-0.9s-0.7-0.3-1.2-0.3
			c-0.6,0-1,0.1-1.3,0.3s-0.4,0.4-0.4,0.7c0,0.2,0.1,0.3,0.2,0.5c0.1,0.1,0.3,0.3,0.5,0.4c0.1,0,0.5,0.2,1.2,0.3
			c0.9,0.2,1.6,0.5,2,0.6c0.4,0.2,0.7,0.4,0.9,0.7s0.3,0.7,0.3,1.1c0,0.4-0.1,0.9-0.4,1.2c-0.3,0.4-0.6,0.7-1.1,0.9
			c-0.5,0.2-1,0.3-1.6,0.3c-1,0-1.8-0.2-2.3-0.6S74.5,61.2,74.4,60.4z"/>
		<path class="st0" d="M87.5,59.9l1.3,0.2c-0.1,0.9-0.5,1.6-1.1,2.1c-0.6,0.5-1.3,0.8-2.1,0.8c-1.1,0-1.9-0.3-2.6-1
			c-0.6-0.7-1-1.7-1-3c0-0.8,0.1-1.6,0.4-2.2s0.7-1.1,1.3-1.4c0.6-0.3,1.2-0.5,1.9-0.5c0.8,0,1.5,0.2,2.1,0.6c0.5,0.4,0.9,1,1,1.8
			l-1.3,0.2c-0.1-0.5-0.3-0.9-0.6-1.2c-0.3-0.3-0.7-0.4-1.1-0.4c-0.7,0-1.2,0.2-1.6,0.7c-0.4,0.5-0.6,1.2-0.6,2.3
			c0,1,0.2,1.8,0.6,2.3s0.9,0.7,1.6,0.7c0.5,0,0.9-0.2,1.3-0.5S87.4,60.5,87.5,59.9z"/>
		<path class="st0" d="M89.4,58.8c0-1.4,0.4-2.5,1.2-3.2c0.7-0.6,1.5-0.9,2.4-0.9c1.1,0,1.9,0.4,2.6,1.1c0.7,0.7,1,1.7,1,2.9
			c0,1-0.1,1.8-0.5,2.4c-0.3,0.6-0.7,1-1.3,1.3c-0.6,0.3-1.2,0.5-1.9,0.5c-1.1,0-2-0.3-2.6-1S89.4,60.1,89.4,58.8z M90.8,58.8
			c0,1,0.2,1.7,0.7,2.2c0.4,0.5,1,0.7,1.6,0.7c0.7,0,1.2-0.2,1.6-0.7s0.7-1.3,0.7-2.3c0-1-0.2-1.7-0.7-2.2c-0.4-0.5-1-0.7-1.6-0.7
			c-0.7,0-1.2,0.2-1.6,0.7S90.8,57.8,90.8,58.8z"/>
		<path class="st0" d="M100.4,62.7l-3-7.8h1.4l1.7,4.7c0.2,0.5,0.3,1,0.5,1.6c0.1-0.4,0.3-0.9,0.5-1.5l1.7-4.7h1.4l-2.9,7.8H100.4z"
			/>
		<path class="st0" d="M111.1,60.2l1.4,0.2c-0.2,0.8-0.6,1.4-1.2,1.9s-1.3,0.7-2.2,0.7c-1.1,0-2-0.3-2.7-1.1c-0.7-0.7-1-1.7-1-2.9
			c0-1.3,0.3-2.3,1-3s1.5-1.1,2.6-1.1c1,0,1.9,0.4,2.5,1.1s1,1.7,1,3c0,0.1,0,0.2,0,0.4h-5.8c0,0.9,0.3,1.5,0.7,2s1,0.7,1.6,0.7
			c0.5,0,0.9-0.1,1.2-0.4S110.9,60.8,111.1,60.2z M106.7,58.1h4.3c-0.1-0.7-0.2-1.1-0.5-1.5c-0.4-0.5-1-0.8-1.6-0.8
			c-0.6,0-1.1,0.2-1.5,0.6C107,56.9,106.8,57.4,106.7,58.1z"/>
		<path class="st0" d="M114.1,62.7v-7.8h1.2v1.2c0.3-0.6,0.6-0.9,0.8-1.1c0.3-0.2,0.5-0.3,0.8-0.3c0.4,0,0.9,0.1,1.4,0.4l-0.5,1.2
			c-0.3-0.2-0.6-0.3-1-0.3c-0.3,0-0.5,0.1-0.8,0.3c-0.2,0.2-0.4,0.4-0.5,0.7c-0.1,0.5-0.2,1-0.2,1.5v4.1H114.1z"/>
		<path class="st0" d="M118.6,62.7v-1.5h1.5v1.5H118.6z"/>
		<path class="st0" d="M126.3,59.3l1.3-0.1c0.1,0.5,0.2,1,0.4,1.3c0.2,0.3,0.6,0.6,1.1,0.8c0.5,0.2,1,0.3,1.6,0.3
			c0.5,0,1-0.1,1.4-0.2s0.7-0.4,0.9-0.7c0.2-0.3,0.3-0.6,0.3-0.9c0-0.3-0.1-0.6-0.3-0.9c-0.2-0.3-0.5-0.5-1-0.6
			c-0.3-0.1-0.9-0.3-1.9-0.5c-1-0.2-1.7-0.5-2.1-0.7c-0.5-0.3-0.9-0.6-1.1-1c-0.3-0.4-0.4-0.8-0.4-1.3c0-0.5,0.2-1,0.5-1.5
			c0.3-0.5,0.8-0.8,1.3-1.1s1.2-0.4,2-0.4c0.8,0,1.5,0.1,2.1,0.4c0.6,0.3,1.1,0.6,1.4,1.1s0.5,1.1,0.5,1.7l-1.4,0.1
			c-0.1-0.7-0.3-1.2-0.7-1.5c-0.4-0.3-1-0.5-1.9-0.5c-0.9,0-1.5,0.2-1.9,0.5c-0.4,0.3-0.6,0.7-0.6,1.1c0,0.4,0.1,0.7,0.4,1
			c0.3,0.2,1,0.5,2.1,0.8c1.2,0.3,1.9,0.5,2.4,0.7c0.6,0.3,1.1,0.7,1.4,1.1c0.3,0.4,0.4,1,0.4,1.5c0,0.6-0.2,1.1-0.5,1.6
			c-0.3,0.5-0.8,0.9-1.4,1.2c-0.6,0.3-1.3,0.4-2.1,0.4c-1,0-1.8-0.1-2.4-0.4c-0.7-0.3-1.2-0.7-1.5-1.3
			C126.5,60.6,126.3,60,126.3,59.3z"/>
		<path class="st0" d="M136.6,62.7V52h1.3v3.9c0.6-0.7,1.4-1.1,2.3-1.1c0.6,0,1.1,0.1,1.5,0.3c0.4,0.2,0.7,0.5,0.9,0.9
			c0.2,0.4,0.3,1,0.3,1.7v4.9h-1.3v-4.9c0-0.7-0.1-1.1-0.4-1.4c-0.3-0.3-0.7-0.5-1.2-0.5c-0.4,0-0.8,0.1-1.1,0.3
			c-0.3,0.2-0.6,0.5-0.7,0.8s-0.2,0.8-0.2,1.4v4.3H136.6z"/>
		<path class="st0" d="M150,61.8c-0.5,0.4-1,0.7-1.4,0.9c-0.5,0.2-0.9,0.3-1.5,0.3c-0.9,0-1.5-0.2-2-0.6c-0.5-0.4-0.7-1-0.7-1.6
			c0-0.4,0.1-0.7,0.3-1c0.2-0.3,0.4-0.6,0.7-0.8c0.3-0.2,0.6-0.3,0.9-0.4c0.3-0.1,0.6-0.1,1.2-0.2c1.1-0.1,1.8-0.3,2.4-0.5
			c0-0.2,0-0.3,0-0.3c0-0.5-0.1-0.9-0.4-1.1c-0.3-0.3-0.8-0.4-1.5-0.4c-0.6,0-1.1,0.1-1.4,0.3c-0.3,0.2-0.5,0.6-0.7,1.2l-1.3-0.2
			c0.1-0.6,0.3-1,0.6-1.3c0.3-0.3,0.7-0.6,1.2-0.8c0.5-0.2,1.1-0.3,1.8-0.3c0.7,0,1.2,0.1,1.6,0.2c0.4,0.2,0.7,0.4,0.9,0.6
			c0.2,0.2,0.3,0.5,0.4,0.9c0,0.2,0.1,0.6,0.1,1.2v1.8c0,1.2,0,2,0.1,2.3c0.1,0.3,0.2,0.6,0.3,0.9h-1.4
			C150.1,62.4,150,62.1,150,61.8z M149.9,58.8c-0.5,0.2-1.2,0.4-2.2,0.5c-0.5,0.1-0.9,0.2-1.1,0.3s-0.4,0.2-0.5,0.4
			c-0.1,0.2-0.2,0.4-0.2,0.6c0,0.4,0.1,0.6,0.4,0.9c0.3,0.2,0.7,0.4,1.2,0.4c0.5,0,1-0.1,1.4-0.3c0.4-0.2,0.7-0.5,0.9-0.9
			c0.1-0.3,0.2-0.7,0.2-1.3V58.8z"/>
		<path class="st0" d="M153.3,62.7v-7.8h1.2v1.2c0.3-0.6,0.6-0.9,0.8-1.1c0.3-0.2,0.5-0.3,0.8-0.3c0.4,0,0.9,0.1,1.4,0.4l-0.5,1.2
			c-0.3-0.2-0.6-0.3-1-0.3c-0.3,0-0.5,0.1-0.8,0.3c-0.2,0.2-0.4,0.4-0.5,0.7c-0.1,0.5-0.2,1-0.2,1.5v4.1H153.3z"/>
		<path class="st0" d="M163.6,60.2l1.4,0.2c-0.2,0.8-0.6,1.4-1.2,1.9c-0.6,0.4-1.3,0.7-2.2,0.7c-1.1,0-2-0.3-2.7-1.1
			c-0.7-0.7-1-1.7-1-2.9c0-1.3,0.3-2.3,1-3s1.5-1.1,2.6-1.1c1,0,1.9,0.4,2.5,1.1c0.7,0.7,1,1.7,1,3c0,0.1,0,0.2,0,0.4h-5.8
			c0,0.9,0.3,1.5,0.7,2s1,0.7,1.6,0.7c0.5,0,0.9-0.1,1.2-0.4S163.4,60.8,163.6,60.2z M159.3,58.1h4.3c-0.1-0.7-0.2-1.1-0.5-1.5
			c-0.4-0.5-1-0.8-1.6-0.8c-0.6,0-1.1,0.2-1.5,0.6C159.5,56.9,159.3,57.4,159.3,58.1z"/>
		<path class="st0" d="M167,62.7v-1.5h1.5v1.5H167z"/>
	</g>
	<path class="st1" d="M115,34.9c-4,0-7.3-2.8-7.3-6.2c0-2.1,1.2-3.9,3-5c-2.8,0.9-4.8,3.1-4.8,5.8c0,3.4,3.3,6.2,7.3,6.2
		c1.6,0,3.1-0.4,4.3-1.2C116.7,34.8,115.9,34.9,115,34.9z"/>
	<g>
		<g>
			<g>
				<polygon class="st2" points="15,40.6 3.7,17.8 8.7,17.8 17,34.6 25.3,17.8 30.3,17.8 19,40.6 				"/>
			</g>
			<g>
				<path class="st2" d="M42,41c-1.4,0-2.8-0.2-4-0.7c-1.2-0.5-2.3-1.1-3.3-1.9c-0.9-0.8-1.7-1.8-2.3-2.9c-0.6-1.1-0.9-2.3-0.9-3.6
					V17.7h4.5v14.1c0,0.7,0.1,1.3,0.4,1.9c0.3,0.6,0.7,1.1,1.2,1.6c0.5,0.5,1.2,0.8,1.9,1.1c0.7,0.3,1.5,0.4,2.4,0.4
					c0.8,0,1.6-0.1,2.3-0.4c0.7-0.3,1.3-0.6,1.9-1.1c0.5-0.4,0.9-1,1.2-1.6c0.3-0.6,0.4-1.2,0.4-1.9V17.7h4.5v14.1
					c0,1.3-0.3,2.5-0.9,3.6c-0.6,1.1-1.3,2.1-2.3,2.9c-0.9,0.8-2,1.5-3.3,1.9C44.8,40.7,43.4,41,42,41z"/>
			</g>
			<g>
				<path class="st2" d="M54.7,40.6V12.9c0-0.9,0.2-1.8,0.6-2.6c0.4-0.8,0.9-1.4,1.6-2c0.7-0.6,1.4-1,2.3-1.4
					C60.1,6.7,61,6.5,62,6.5c1,0,1.9,0.2,2.8,0.5c0.9,0.3,1.7,0.8,2.3,1.4c0.6,0.6,1.2,1.3,1.6,2c0.4,0.8,0.6,1.7,0.6,2.6v1h-4.5v-1
					c0-0.6-0.2-1.1-0.8-1.5c-0.6-0.5-1.2-0.7-2-0.7c-0.8,0-1.4,0.2-2,0.7c-0.5,0.4-0.8,0.9-0.8,1.5v11.9h9v4.2h-9v11.5H54.7z"/>
			</g>
			<g>
				<rect x="70.7" y="17.8" class="st2" width="4.5" height="22.8"/>
			</g>
			<g>
				<path class="st2" d="M93.7,40.6V26.5c0-0.7-0.1-1.3-0.4-1.9C93,24,92.6,23.5,92.1,23c-0.5-0.5-1.2-0.8-1.9-1.1
					c-0.7-0.3-1.5-0.4-2.4-0.4c-0.8,0-1.6,0.1-2.3,0.4c-0.7,0.3-1.3,0.6-1.9,1.1c-0.5,0.5-0.9,1-1.2,1.6c-0.3,0.6-0.4,1.2-0.4,1.9
					v14.1h-4.5V26.5c0-1.3,0.3-2.5,0.9-3.6c0.6-1.1,1.3-2.1,2.3-2.9c0.9-0.8,2-1.5,3.3-1.9c1.3-0.5,2.6-0.7,4-0.7
					c1.4,0,2.8,0.2,4,0.7c1.2,0.5,2.3,1.1,3.3,1.9c0.9,0.8,1.7,1.8,2.3,2.9c0.6,1.1,0.9,2.3,0.9,3.6v14.1H93.7z"/>
			</g>
			<g>
				<path class="st2" d="M113.1,41c-1.8,0-3.5-0.3-5-0.9c-1.6-0.6-3-1.4-4.1-2.4c-1.2-1-2.1-2.2-2.8-3.6c-0.7-1.4-1.1-2.9-1.1-4.5
					c0-1.6,0.4-3.1,1-4.5c0.7-1.4,1.6-2.6,2.8-3.7c1.2-1,2.6-1.8,4.1-2.4c1.6-0.6,3.3-0.9,5-0.9c2.1,0,4.1,0.4,5.9,1.2
					c1,0.5,1.9,1,2.7,1.6V8.5h4.4v21c0,1.6-0.4,3.1-1.1,4.5c-0.7,1.4-1.6,2.6-2.8,3.6c-1.2,1-2.6,1.8-4.1,2.4
					C116.6,40.7,114.9,41,113.1,41z M113.1,22.2c-1.2,0-2.3,0.2-3.4,0.6c-1.1,0.4-2,0.9-2.8,1.6c-0.8,0.7-1.4,1.4-1.8,2.3
					c-0.4,0.9-0.7,1.8-0.7,2.8c0,1,0.2,1.9,0.7,2.8c0.4,0.9,1.1,1.7,1.8,2.4c0.8,0.7,1.7,1.2,2.8,1.6c1.1,0.4,2.2,0.6,3.4,0.6
					s2.3-0.2,3.4-0.6c1.1-0.4,2-0.9,2.8-1.6c0.8-0.7,1.4-1.5,1.8-2.4c0.4-0.9,0.7-1.8,0.7-2.8c0-1-0.2-1.9-0.7-2.8
					c-0.4-0.9-1.1-1.7-1.8-2.3c-0.8-0.7-1.7-1.2-2.8-1.6C115.4,22.4,114.3,22.2,113.1,22.2z"/>
			</g>
		</g>
	</g>
	<polygon class="st1" points="125.4,36.1 123.3,39.1 138,46.4 140,43.5 	"/>
	<rect x="70.7" y="8.5" class="st2" width="4.5" height="5.5"/>
	<g>
		<path d="M130.9,6.1c0.5,0,1,0.1,1.4,0.4c0.5,0.3,0.8,0.6,1.1,1.1c0.3,0.5,0.4,1,0.4,1.5c0,0.5-0.1,1-0.4,1.5
			c-0.3,0.5-0.6,0.8-1.1,1.1c-0.5,0.3-1,0.4-1.5,0.4c-0.5,0-1-0.1-1.5-0.4c-0.5-0.3-0.8-0.6-1.1-1.1c-0.3-0.5-0.4-1-0.4-1.5
			c0-0.5,0.1-1,0.4-1.5c0.3-0.5,0.6-0.8,1.1-1.1C129.9,6.2,130.4,6.1,130.9,6.1z M130.9,6.6c-0.4,0-0.8,0.1-1.2,0.3
			c-0.4,0.2-0.7,0.5-0.9,0.9c-0.2,0.4-0.3,0.8-0.3,1.2c0,0.4,0.1,0.8,0.3,1.2c0.2,0.4,0.5,0.7,0.9,0.9s0.8,0.3,1.2,0.3
			c0.4,0,0.8-0.1,1.2-0.3s0.7-0.5,0.9-0.9c0.2-0.4,0.3-0.8,0.3-1.2c0-0.4-0.1-0.8-0.3-1.2c-0.2-0.4-0.5-0.7-0.9-0.9
			C131.7,6.7,131.3,6.6,130.9,6.6z M129.6,10.7V7.5h1.1c0.4,0,0.6,0,0.8,0.1c0.2,0.1,0.3,0.2,0.4,0.3c0.1,0.1,0.1,0.3,0.1,0.5
			c0,0.2-0.1,0.4-0.2,0.6c-0.2,0.2-0.4,0.3-0.7,0.3c0.1,0,0.2,0.1,0.3,0.2c0.1,0.1,0.3,0.3,0.5,0.6l0.4,0.6h-0.6l-0.3-0.5
			c-0.2-0.4-0.4-0.6-0.5-0.7c-0.1-0.1-0.2-0.1-0.4-0.1h-0.3v1.3H129.6z M130.1,8.9h0.6c0.3,0,0.5,0,0.6-0.1c0.1-0.1,0.2-0.2,0.2-0.4
			c0-0.1,0-0.2-0.1-0.3c-0.1-0.1-0.1-0.1-0.2-0.2c-0.1,0-0.3-0.1-0.5-0.1h-0.6V8.9z"/>
	</g>
</g>
</svg>
